<svg width="100" height="100" viewBox="0 0 32 32" fill="none" xmlns="http://www.w3.org/2000/svg">
<g id="logo">
<g clip-path="url(#clip0)">
<path id="Vector_2" d="M26 5.89999C24.9 5.29999 23.2 6.29999 22.2 8.09999L20.3 11.3C19.6 12.6 19.7 14.2 20.6 15.5L20.7 15.6C21.6 16.8 22.7 18 23.1 18.4C23.3 18.6 23.5 18.9 23.6 19.3C23.9 20.4 23.3 21.6 22.1 21.9C21 22.2 19.8 21.6 19.5 20.4C19.4 20.1 19.4 19.8 19.4 19.6C19.5 19.1 19.3 18.4 18.6 17.6C17.9 16.9 16.6 18.3 16.1 19.7V19.8C15.7 21.2 15.4 22.5 15.5 22.6C15.5 22.7 15.6 22.7 15.6 22.8C16.2 24 15.8 25.4 14.6 26C13.4 26.6 12 26.2 11.4 25C10.8 23.8 11.2 22.4 12.4 21.8C12.5 21.8 12.5 21.7 12.6 21.7C12.7 21.7 12.9 21.1 13.2 20.3C13.4 19.6 13.5 19.3 13.6 19C13.7 18.6 13.9 17.6 13.8 17.2C13.7 16.7 13.2 16.7 12.7 17C12.4 17.2 11.8 17.7 11.6 17.9C11.1 18.3 10.7 18.9 10.5 19.4C10.4 19.6 10.2 19.9 10 20.1C9.1 20.8 7.8 20.7 7 19.8C6.3 18.9 6.4 17.6 7.3 16.8C7.6 16.6 7.9 16.4 8.2 16.4C8.7 16.3 10.5 15.2 11.6 14.4C11.8 14.3 12.1 14 12.2 13.9C12.5 13.5 12.2 13.2 11.9 13.2C11 13.3 10 13.4 9.8 13.7C9.7 13.8 9.6 14 9.4 14.1C8.6 14.7 7.4 14.5 6.8 13.7C6.2 12.9 6.4 11.7 7.2 11.1C7.5 10.8 8 10.7 8.3 10.7C9 10.7 10.8 11.1 12.2 10.8L12.6 10.7C14.1 10.4 15.9 9.09999 16.6 7.79999C16.6 7.79999 17.3 6.59999 18.1 5.09999C19 3.59999 18.9 1.89999 18 1.39999L16.3 0.399994C15.4 -0.100006 14.1 -0.100006 13.2 0.399994L1.6 6.99999C0.7 7.49999 0 8.69999 0 9.69999V22.5C0 23.5 0.7 24.7 1.6 25.2L13.2 31.8C14.1 32.3 15.5 32.3 16.3 31.8L27.9 25.2C28.8 24.7 29.5 23.5 29.5 22.5V9.69999C29.5 8.69999 28.8 7.49999 27.9 6.99999C27.9 6.99999 27.1 6.49999 26 5.89999Z" fill="#5FCF80"/>
</g>
</g>
<defs>
<clipPath id="clip0">
<rect width="139" height="32" fill="white"/>
</clipPath>
</defs>
</svg>